<svg width="63" height="63" viewBox="0 0 63 63" fill="none" xmlns="http://www.w3.org/2000/svg">
<circle cx="2" cy="2" r="2" fill="#ABB2BF"/>
<circle cx="16.75" cy="2" r="2" fill="#ABB2BF"/>
<circle cx="31.5" cy="2" r="2" fill="#ABB2BF"/>
<circle cx="46.25" cy="2" r="2" fill="#ABB2BF"/>
<circle cx="61" cy="2" r="2" fill="#ABB2BF"/>
<circle cx="2" cy="16.75" r="2" fill="#ABB2BF"/>
<circle cx="16.75" cy="16.75" r="2" fill="#ABB2BF"/>
<circle cx="31.5" cy="16.75" r="2" fill="#ABB2BF"/>
<circle cx="46.25" cy="16.75" r="2" fill="#ABB2BF"/>
<circle cx="61" cy="16.75" r="2" fill="#ABB2BF"/>
<circle cx="2" cy="31.5" r="2" fill="#ABB2BF"/>
<circle cx="16.75" cy="31.5" r="2" fill="#ABB2BF"/>
<circle cx="31.5" cy="31.5" r="2" fill="#ABB2BF"/>
<circle cx="46.25" cy="31.5" r="2" fill="#ABB2BF"/>
<circle cx="61" cy="31.5" r="2" fill="#ABB2BF"/>
<circle cx="2" cy="46.25" r="2" fill="#ABB2BF"/>
<circle cx="16.75" cy="46.25" r="2" fill="#ABB2BF"/>
<circle cx="31.5" cy="46.25" r="2" fill="#ABB2BF"/>
<circle cx="46.25" cy="46.25" r="2" fill="#ABB2BF"/>
<circle cx="61" cy="46.25" r="2" fill="#ABB2BF"/>
<circle cx="2" cy="61" r="2" fill="#ABB2BF"/>
<circle cx="16.75" cy="61" r="2" fill="#ABB2BF"/>
<circle cx="31.5" cy="61" r="2" fill="#ABB2BF"/>
<circle cx="46.25" cy="61" r="2" fill="#ABB2BF"/>
<circle cx="61" cy="61" r="2" fill="#ABB2BF"/>
</svg>
